<svg id="レイヤー_1" data-name="レイヤー 1" xmlns="http://www.w3.org/2000/svg" viewBox="0 0 500 434.88"><defs><style>.cls-1{fill:#282e5a;}</style></defs><path class="cls-1" d="M500,301.63c0,13.82-68.32,30.63-150.89,30.63h0c-82.56,0-150.88-16.81-150.88-30.63,0-12.29,23.5-17.55,32.2-19,4.57-.74,9.28,1.21,6.64,3.48-2,1.78-15.08,4.85-16.49,12.67-2.44,13.62,57.4,29.45,128.53,29.45h0c71.14,0,131-15.83,128.54-29.45-1.41-7.82-14.48-10.89-16.49-12.67-2.65-2.27,2.07-4.22,6.61-3.48C476.47,284.08,500,289.34,500,301.63Z" transform="translate(0 0)"/><path class="cls-1" d="M282.63,298c-1.23,7,29.71,15.23,66.48,15.23,36.06,0,66.48-7.87,66.48-14.79a2.17,2.17,0,0,0,0-.44c-.71-4-7.47-5.63-8.53-6.55-1.35-1.15,1.18-2.5,3.45-1.78,5.69,1.81,16.63,3.48,16.63,9.83,0,7.15-35.3,15.83-78,15.83-21.34,0-40.85-2.16-55-5.23s-23-7-23-10.6c0-6.35,11-8,16.67-9.83,2.27-.72,4.8.63,3.42,1.78C290.13,292.32,283.38,293.93,282.63,298Z" transform="translate(0 0)"/><path class="cls-1" d="M227.3,164.28l-64,146.57c-8.19,16.87-32.29,16.87-40.94,0L4.3,44.82C-7.73,18.33,6.72,0,32.26,0h24.1C78,0,90.09,14.48,85.26,36.14c-1.35,4.54-1.43,8.22-1.43,12.67,0,28.42,18.47,54.07,45.91,61.4,40.5,10.77,77-21.69,77-60.56,0-4.83-1-8.68-1-13.51C199.46,13.51,208.14,0,233.19,0h24.1C282.83,0,291,15.92,286.2,36.14a64.69,64.69,0,0,0-.95,13.51c0,33.72,24.07,62.66,61.19,62.66,30.37,0,61.68-24.11,61.68-62.66,0-4.83-1.43-8.68-2.41-13.51C400.88,14.48,406.69,0,434.61,0h24.11c29.87,0,38.55,20.74,27.46,44.82L383.24,276.64c41.43,3,71.63,11.23,71.63,18.93,0,7.47-10.06,11.06-17.44,11.64-3.25.25-6.52-.84-4.69-2.45,1.44-1.23,6.44-3.5,6.44-7.18,0-7.44-23.7-14.85-57.29-17.87L378,288.44a5.58,5.58,0,0,1-.32.52c6.69,1.64,10.77,3.82,10.77,6.24,0,5-17.64,9.1-39.36,9.1s-39.36-4.08-39.36-9.1c0-2.42,4.08-4.6,10.75-6.21a2.94,2.94,0,0,1-.32-.55l-3.79-8.76c-33.64,3-57.43,10.46-57.43,17.9,0,3.68,5,5.95,6.44,7.18,1.83,1.61-1.44,2.7-4.69,2.45-7.35-.58-17.44-4.17-17.44-11.64,0-7.7,30.29-15.92,71.8-18.93L265.94,163.07C258,146.44,234.17,147.18,227.3,164.28Z" transform="translate(0 0)"/><polygon class="cls-1" points="121.76 355.53 115.32 383.3 111.6 383.3 105.87 359.97 99.72 383.3 96.14 383.3 89.84 355.53 93.28 355.53 98.14 378.44 104.16 355.53 107.73 355.53 113.46 378.44 118.61 355.53 121.76 355.53"/><path class="cls-1" d="M140.8,377.43v-7.87a9.26,9.26,0,0,0-.57-4,4.73,4.73,0,0,0-2.44-2,10.51,10.51,0,0,0-4.43-.86,9,9,0,0,0-5.87,1.86,5.22,5.22,0,0,0-2.29,4h3.72a3.45,3.45,0,0,1,1.14-2.44,5.2,5.2,0,0,1,3.16-.85,4.75,4.75,0,0,1,3.43,1,2.57,2.57,0,0,1,.86,2.29v2.29q-6.58,1-9.73,2.86a4.94,4.94,0,0,0-2.73,4.73,5.26,5.26,0,0,0,1.58,3.86,5.61,5.61,0,0,0,4.15,1.58,6.6,6.6,0,0,0,3.44-.86,32.37,32.37,0,0,0,3.29-2.44,10.38,10.38,0,0,0,.43,2.72h3.58A24,24,0,0,1,140.8,377.43Zm-3.29-2.29a6,6,0,0,1-1.72,4.44,5.31,5.31,0,0,1-3.87,1.72,3.08,3.08,0,0,1-2.28-.86,2.11,2.11,0,0,1-1-2,3.13,3.13,0,0,1,1.29-2.58q1.29-1,7.59-2.58Z" transform="translate(0 0)"/><path class="cls-1" d="M158.26,380.44v2.86a12.65,12.65,0,0,1-3.72.58c-2.19,0-3.77-.62-4.72-1.86q-1.73-1.72-1.72-5.59V366.12h-3.43v-2.86h3.43v-4.72h3.29v4.72h5.87v2.86h-5.87v9.31c0,2.39.34,3.91,1,4.58a3.38,3.38,0,0,0,2.87,1.15A16.09,16.09,0,0,0,158.26,380.44Z" transform="translate(0 0)"/><path class="cls-1" d="M178.74,372.57q0-5.16-2.15-7.45a8.16,8.16,0,0,0-6-2.29,8.49,8.49,0,0,0-6.59,2.86q-2.72,2.73-2.72,7.73a10.9,10.9,0,0,0,2.58,7.59,8.8,8.8,0,0,0,6.87,2.87,9.18,9.18,0,0,0,5.87-1.72,5.14,5.14,0,0,0,2-4H175.3a2.46,2.46,0,0,1-1.15,2,4.26,4.26,0,0,1-3.14,1,5.71,5.71,0,0,1-4.58-2,7.37,7.37,0,0,1-1.86-5.44h14.17Zm-3.29-1.29H164.71a9.18,9.18,0,0,1,2.14-4.3,4.71,4.71,0,0,1,3.44-1.43,5,5,0,0,1,2.72.72,4.29,4.29,0,0,1,1.86,2,5.72,5.72,0,0,1,.58,2.58Z" transform="translate(0 0)"/><path class="cls-1" d="M189.33,363.83a10.06,10.06,0,0,0-2.72,3v-3.58h-3.44v20h3.44v-9.88a9.06,9.06,0,0,1,1.57-5.72,4.88,4.88,0,0,1,3.73-1.72,5.15,5.15,0,0,1,2.57.57v-3.43a12.73,12.73,0,0,0-1.86-.29A5.57,5.57,0,0,0,189.33,363.83Z" transform="translate(0 0)"/><polygon class="cls-1" points="223.26 358.54 223.26 355.53 207.51 355.53 207.51 383.3 224.26 383.3 224.26 380.3 211.23 380.3 211.23 370.13 221.68 370.13 221.68 367.41 211.23 367.41 211.23 358.54 223.26 358.54"/><path class="cls-1" d="M228.55,363.26v20H232v-9.88q0-3.85,1.71-5.72a4.64,4.64,0,0,1,3.87-1.86,4.06,4.06,0,0,1,3,1.14q1,1,1,5V383.3H245V370.56q0-4.15-1.71-6a6.58,6.58,0,0,0-4.87-1.72,7.1,7.1,0,0,0-6.44,4v-3.58Z" transform="translate(0 0)"/><polygon class="cls-1" points="264.2 363.26 257.76 379.01 251.31 363.26 247.73 363.26 255.89 383.3 259.19 383.3 267.49 363.26 264.2 363.26"/><rect class="cls-1" x="270.49" y="355.53" width="3.43" height="3.29"/><rect class="cls-1" x="270.49" y="363.26" width="3.43" height="20.04"/><path class="cls-1" d="M290.39,363.12a12.73,12.73,0,0,0-1.86-.29,5.57,5.57,0,0,0-3.29,1,10.06,10.06,0,0,0-2.72,3v-3.58h-3.44v20h3.44v-9.88a9.06,9.06,0,0,1,1.57-5.72,4.9,4.9,0,0,1,3.73-1.72,5.15,5.15,0,0,1,2.57.57Z" transform="translate(0 0)"/><path class="cls-1" d="M308.57,365.55a8.84,8.84,0,0,0-6.73-2.72,9,9,0,0,0-6.87,2.72c-1.72,1.81-2.57,4.39-2.57,7.73s.9,5.92,2.72,7.73a9.34,9.34,0,0,0,13.45,0,11.13,11.13,0,0,0,2.58-7.73Q311.15,368.27,308.57,365.55ZM306,379a5.15,5.15,0,0,1-4.16,2.15,5.26,5.26,0,0,1-4.29-2.15,8.5,8.5,0,0,1-1.72-5.72c0-2.58.57-4.48,1.72-5.73a5.43,5.43,0,0,1,4.29-2,5.31,5.31,0,0,1,4.16,2c1.14,1.25,1.71,3.15,1.71,5.73A8.55,8.55,0,0,1,306,379Z" transform="translate(0 0)"/><path class="cls-1" d="M328.47,372V383.3h3.43V370.56q0-4.15-1.71-6a6.58,6.58,0,0,0-4.87-1.72,7.11,7.11,0,0,0-6.44,4v-3.58h-3.44v20h3.44v-9.88q0-3.85,1.72-5.72a4.61,4.61,0,0,1,3.86-1.86,4.1,4.1,0,0,1,3,1.14C328.13,367.65,328.47,369.32,328.47,372Z" transform="translate(0 0)"/><path class="cls-1" d="M364.54,383.3V370.85A12.1,12.1,0,0,0,363.4,365a5.74,5.74,0,0,0-4.73-2.15q-3.85,0-6.29,4.15a7.9,7.9,0,0,0-2.15-3.15,6.61,6.61,0,0,0-3.87-1,7.07,7.07,0,0,0-3.43.86,7.83,7.83,0,0,0-2.72,3.29v-3.72h-3.44v20h3.44v-9.74q0-3.85,1.72-5.72a4.6,4.6,0,0,1,3.72-2,3.16,3.16,0,0,1,2.72,1.43c.47.76.72,2.38.72,4.86V383.3h3.29v-9.74q0-3.85,1.72-5.72a4.62,4.62,0,0,1,3.72-2,3.43,3.43,0,0,1,2.86,1.57c.38.67.57,2.24.57,4.72V383.3Z" transform="translate(0 0)"/><path class="cls-1" d="M386.16,372.56c0-3.43-.71-5.91-2.15-7.44a8.12,8.12,0,0,0-6-2.29,8.44,8.44,0,0,0-6.58,2.86c-1.82,1.82-2.72,4.39-2.72,7.73a10.91,10.91,0,0,0,2.57,7.59,8.8,8.8,0,0,0,6.88,2.86,9.15,9.15,0,0,0,5.86-1.71,5.15,5.15,0,0,0,2-4h-3.3a2.47,2.47,0,0,1-1.14,2,4.3,4.3,0,0,1-3.15,1,5.7,5.7,0,0,1-4.58-2,7.37,7.37,0,0,1-1.86-5.44h14.17Zm-3.29-1.28H372.13a9.19,9.19,0,0,1,2.15-4.3,4.69,4.69,0,0,1,3.43-1.43,5.14,5.14,0,0,1,2.73.71,4.36,4.36,0,0,1,1.86,2,5.82,5.82,0,0,1,.57,2.58Z" transform="translate(0 0)"/><path class="cls-1" d="M400.47,362.83a7.12,7.12,0,0,0-6.44,4v-3.58H390.6v20H394v-9.88q0-3.85,1.72-5.72a4.61,4.61,0,0,1,3.86-1.86,4.08,4.08,0,0,1,3,1.14q1,1,1,5V383.3h3.43V370.56q0-4.15-1.72-6A6.56,6.56,0,0,0,400.47,362.83Z" transform="translate(0 0)"/><path class="cls-1" d="M418.37,380c-.67-.67-1-2.2-1-4.58v-9.31h5.87v-2.86h-5.87v-4.72h-3.3v4.72h-3.43v2.86h3.43v10.31c0,2.57.58,4.44,1.72,5.58,1,1.24,2.53,1.86,4.73,1.86a12.64,12.64,0,0,0,3.72-.57v-2.86a15.9,15.9,0,0,1-3,.71A3.34,3.34,0,0,1,418.37,380Z" transform="translate(0 0)"/><rect class="cls-1" x="47.68" y="406.54" width="3.72" height="27.77"/><path class="cls-1" d="M66.43,413.84a7.1,7.1,0,0,0-6.44,4v-3.57H56.56v20H60v-9.88q0-3.87,1.72-5.73a4.62,4.62,0,0,1,3.87-1.86,4,4,0,0,1,3,1.15q1,1,1,5v11.31H73V421.57q0-4.15-1.72-6A6.6,6.6,0,0,0,66.43,413.84Z" transform="translate(0 0)"/><path class="cls-1" d="M81.47,407.25q-1.73,1.86-1.72,6.16v.86H76.88v2.86h2.87v17.18H83V417.13h5.87v-2.86H83v-1.44a5.65,5.65,0,0,1,.86-3.58,3.83,3.83,0,0,1,3-1,11.14,11.14,0,0,1,2.29.15v-2.72c-2.1-.19-3.06-.29-2.87-.29A6.27,6.27,0,0,0,81.47,407.25Z" transform="translate(0 0)"/><path class="cls-1" d="M100.79,413.84a9,9,0,0,0-6.87,2.72c-1.72,1.81-2.58,4.39-2.58,7.72s.91,5.92,2.72,7.74a9.35,9.35,0,0,0,13.46,0,11.13,11.13,0,0,0,2.57-7.74c0-3.33-.85-5.91-2.57-7.72A8.82,8.82,0,0,0,100.79,413.84ZM104.94,430a5.16,5.16,0,0,1-4.15,2.15A5.28,5.28,0,0,1,96.5,430a8.51,8.51,0,0,1-1.72-5.73q0-3.86,1.72-5.72a5.39,5.39,0,0,1,4.29-2,5.26,5.26,0,0,1,4.15,2q1.73,1.86,1.72,5.72A8.51,8.51,0,0,1,104.94,430Z" transform="translate(0 0)"/><path class="cls-1" d="M120.55,414.84a10,10,0,0,0-2.72,3v-3.57h-3.44v20h3.44v-9.88a9.11,9.11,0,0,1,1.57-5.73,4.91,4.91,0,0,1,3.72-1.72,5.19,5.19,0,0,1,2.58.58v-3.44a12.21,12.21,0,0,0-1.86-.28A5.57,5.57,0,0,0,120.55,414.84Z" transform="translate(0 0)"/><path class="cls-1" d="M150.46,413.84q-3.86,0-6.29,4.15a7.83,7.83,0,0,0-2.15-3.15,6.65,6.65,0,0,0-3.87-1,7,7,0,0,0-3.43.86A7.76,7.76,0,0,0,132,418v-3.72h-3.44v20H132v-9.74q0-3.85,1.71-5.73a4.66,4.66,0,0,1,3.73-2,3.17,3.17,0,0,1,2.72,1.43c.47.77.71,2.39.71,4.87v11.17h3.3v-9.74q0-3.85,1.71-5.73a4.65,4.65,0,0,1,3.73-2,3.44,3.44,0,0,1,2.86,1.58c.38.67.57,2.24.57,4.72v11.17h3.29V421.85a12.13,12.13,0,0,0-1.14-5.87A5.73,5.73,0,0,0,150.46,413.84Z" transform="translate(0 0)"/><path class="cls-1" d="M176.52,420.56a9.17,9.17,0,0,0-.58-4,4.68,4.68,0,0,0-2.43-2,10.56,10.56,0,0,0-4.44-.86,9,9,0,0,0-5.87,1.86,5.25,5.25,0,0,0-2.29,4h3.73a3.41,3.41,0,0,1,1.14-2.43,5.15,5.15,0,0,1,3.15-.86,4.78,4.78,0,0,1,3.43,1,2.56,2.56,0,0,1,.86,2.29v2.29q-6.58,1-9.73,2.86a5,5,0,0,0-2.72,4.73,5.19,5.19,0,0,0,1.58,3.86,5.59,5.59,0,0,0,4.15,1.58,6.57,6.57,0,0,0,3.43-.86,33.24,33.24,0,0,0,3.29-2.43,10.89,10.89,0,0,0,.43,2.72h3.58a24,24,0,0,1-.71-5.87Zm-3.3,5.59a6,6,0,0,1-1.71,4.43,5.35,5.35,0,0,1-3.87,1.72,3.07,3.07,0,0,1-2.29-.86,2.09,2.09,0,0,1-1-2,3.13,3.13,0,0,1,1.29-2.58c.86-.66,3.38-1.52,7.58-2.58Z" transform="translate(0 0)"/><path class="cls-1" d="M188.11,431c-.67-.66-1-2.19-1-4.58v-9.3H193v-2.86h-5.87v-4.73h-3.29v4.73h-3.44v2.86h3.44v10.31q0,3.85,1.71,5.58c1,1.24,2.53,1.86,4.73,1.86a12.64,12.64,0,0,0,3.72-.57v-2.87a16.12,16.12,0,0,1-3,.72A3.33,3.33,0,0,1,188.11,431Z" transform="translate(0 0)"/><rect class="cls-1" x="197.85" y="406.54" width="3.44" height="3.29"/><rect class="cls-1" x="197.85" y="414.27" width="3.44" height="20.04"/><path class="cls-1" d="M215,413.84a9,9,0,0,0-6.87,2.72c-1.72,1.81-2.58,4.39-2.58,7.72s.91,5.92,2.73,7.74a9.34,9.34,0,0,0,13.45,0,11.14,11.14,0,0,0,2.58-7.74c0-3.33-.86-5.91-2.58-7.72A8.82,8.82,0,0,0,215,413.84ZM219.18,430a5.18,5.18,0,0,1-4.16,2.15,5.29,5.29,0,0,1-4.29-2.15,8.51,8.51,0,0,1-1.72-5.73q0-3.86,1.72-5.72a5.4,5.4,0,0,1,4.29-2,5.28,5.28,0,0,1,4.16,2q1.71,1.86,1.71,5.72A8.56,8.56,0,0,1,219.18,430Z" transform="translate(0 0)"/><path class="cls-1" d="M238.5,413.84a7.1,7.1,0,0,0-6.44,4v-3.57h-3.44v20h3.44v-9.88q0-3.87,1.72-5.73a4.61,4.61,0,0,1,3.86-1.86,4.06,4.06,0,0,1,3,1.15q1,1,1,5v11.31h3.44V421.57c0-2.77-.58-4.78-1.72-6A6.61,6.61,0,0,0,238.5,413.84Z" transform="translate(0 0)"/><path class="cls-1" d="M275,408q-1.86-1.44-7.16-1.44h-7.73v27.78h3.72v-11h3.44c3.34,0,5.91-.86,7.73-2.57a8.7,8.7,0,0,0,2.72-6.59Q277.73,409.83,275,408Zm-2.44,10.59c-1.05,1.34-3.15,2-6.3,2h-2.43V409.4H268a8.07,8.07,0,0,1,4.73,1.14c.86.67,1.29,1.91,1.29,3.73A6.87,6.87,0,0,1,272.57,418.56Z" transform="translate(0 0)"/><rect class="cls-1" x="281.45" y="405.39" width="3.44" height="28.92"/><path class="cls-1" d="M305.21,420.56a9.21,9.21,0,0,0-.57-4,4.75,4.75,0,0,0-2.44-2,10.51,10.51,0,0,0-4.43-.86,9,9,0,0,0-5.87,1.86,5.22,5.22,0,0,0-2.29,4h3.72a3.39,3.39,0,0,1,1.15-2.43,5.14,5.14,0,0,1,3.14-.86,4.81,4.81,0,0,1,3.44,1,2.59,2.59,0,0,1,.86,2.29v2.29q-6.59,1-9.73,2.86a4.93,4.93,0,0,0-2.72,4.73A5.22,5.22,0,0,0,291,433.3a5.61,5.61,0,0,0,4.15,1.58,6.6,6.6,0,0,0,3.44-.86,33.24,33.24,0,0,0,3.29-2.43,10.44,10.44,0,0,0,.43,2.72h3.58a24,24,0,0,1-.72-5.87Zm-3.29,5.59a6,6,0,0,1-1.72,4.43,5.31,5.31,0,0,1-3.87,1.72,3,3,0,0,1-2.28-.86,2.09,2.09,0,0,1-1-2,3.12,3.12,0,0,1,1.28-2.58q1.29-1,7.59-2.58Z" transform="translate(0 0)"/><path class="cls-1" d="M316.8,431c-.66-.66-1-2.19-1-4.58v-9.3h5.86v-2.86h-5.86v-4.73h-3.3v4.73h-3.43v2.86h3.43v10.31q0,3.85,1.72,5.58c.95,1.24,2.53,1.86,4.72,1.86a12.64,12.64,0,0,0,3.72-.57v-2.87a16.09,16.09,0,0,1-3,.72A3.35,3.35,0,0,1,316.8,431Z" transform="translate(0 0)"/><path class="cls-1" d="M330.12,407.25q-1.72,1.86-1.72,6.16v.86h-2.86v2.86h2.86v17.18h3.3V417.13h5.87v-2.86H331.7v-1.44a5.65,5.65,0,0,1,.85-3.58,3.85,3.85,0,0,1,3-1,11,11,0,0,1,2.29.15v-2.72c-2.1-.19-3.06-.29-2.86-.29A6.29,6.29,0,0,0,330.12,407.25Z" transform="translate(0 0)"/><path class="cls-1" d="M349.44,413.84a9,9,0,0,0-6.86,2.72c-1.73,1.81-2.58,4.39-2.58,7.72s.9,5.92,2.72,7.74a9.34,9.34,0,0,0,13.45,0,11.14,11.14,0,0,0,2.58-7.74c0-3.33-.86-5.91-2.58-7.72A8.81,8.81,0,0,0,349.44,413.84ZM353.6,430a5.18,5.18,0,0,1-4.16,2.15,5.3,5.3,0,0,1-4.29-2.15,8.56,8.56,0,0,1-1.72-5.73c0-2.57.58-4.48,1.72-5.72a5.42,5.42,0,0,1,4.29-2,5.28,5.28,0,0,1,4.16,2q1.71,1.86,1.71,5.72A8.56,8.56,0,0,1,353.6,430Z" transform="translate(0 0)"/><path class="cls-1" d="M369.2,414.84a10.29,10.29,0,0,0-2.72,3v-3.57h-3.43v20h3.43v-9.88a9.11,9.11,0,0,1,1.58-5.73,4.91,4.91,0,0,1,3.72-1.72,5.14,5.14,0,0,1,2.57.58v-3.44a12.32,12.32,0,0,0-1.85-.28A5.62,5.62,0,0,0,369.2,414.84Z" transform="translate(0 0)"/><path class="cls-1" d="M399.12,413.84q-3.87,0-6.3,4.15a7.83,7.83,0,0,0-2.14-3.15,6.65,6.65,0,0,0-3.87-1,7,7,0,0,0-3.44.86,7.83,7.83,0,0,0-2.72,3.29v-3.72h-3.44v20h3.44v-9.74c0-2.57.58-4.48,1.72-5.73a4.64,4.64,0,0,1,3.72-2,3.16,3.16,0,0,1,2.72,1.43c.48.77.72,2.39.72,4.87v11.17h3.29v-9.74q0-3.85,1.72-5.73a4.64,4.64,0,0,1,3.72-2,3.42,3.42,0,0,1,2.86,1.58c.39.67.58,2.24.58,4.72v11.17H405V421.85a12,12,0,0,0-1.15-5.87A5.71,5.71,0,0,0,399.12,413.84Z" transform="translate(0 0)"/><rect class="cls-1" x="420.16" y="406.54" width="3.72" height="27.77"/><path class="cls-1" d="M438.91,413.84a7.1,7.1,0,0,0-6.44,4v-3.57H429v20h3.44v-9.88c0-2.58.58-4.49,1.72-5.73a4.62,4.62,0,0,1,3.87-1.86,4,4,0,0,1,3,1.15q1,1,1,5v11.31h3.44V421.57c0-2.77-.58-4.78-1.72-6A6.6,6.6,0,0,0,438.91,413.84Z" transform="translate(0 0)"/><path class="cls-1" d="M458.81,416.56a5.88,5.88,0,0,1,3.15.71,2.7,2.7,0,0,1,1,2.15h3.3a4.46,4.46,0,0,0-1.72-3.58,7.94,7.94,0,0,0-5.87-2,8.84,8.84,0,0,0-6.73,2.57c-1.62,1.91-2.43,4.54-2.43,7.87s.81,6,2.43,7.88,3.77,2.72,6.73,2.72a8.68,8.68,0,0,0,5.59-1.72,5.15,5.15,0,0,0,2-4H463a2.7,2.7,0,0,1-1,2.15,4.8,4.8,0,0,1-3.15.86,5,5,0,0,1-4.15-2,8.81,8.81,0,0,1-1.72-5.87c0-2.67.58-4.62,1.72-5.86A4.92,4.92,0,0,1,458.81,416.56Z" transform="translate(0 0)"/><rect class="cls-1" x="470.98" y="429.58" width="4.72" height="4.72"/></svg>